<?xml version="1.0" encoding="utf-8"?>
<!-- Generator: Adobe Illustrator 25.0.0, SVG Export Plug-In . SVG Version: 6.00 Build 0)  -->
<svg version="1.1" id="Layer_1" xmlns="http://www.w3.org/2000/svg" xmlns:xlink="http://www.w3.org/1999/xlink" x="0px" y="0px"
	 viewBox="0 0 100 100" style="enable-background:new 0 0 100 100;" xml:space="preserve">
<style type="text/css">
	.st0{fill-rule:evenodd;clip-rule:evenodd;fill:#E0001B;}
	.st1{fill-rule:evenodd;clip-rule:evenodd;fill:#FFFFFF;}
</style>
<g>
	<path class="st0" d="M100,100V0H0v100H100z"/>
	<g>
		<path class="st1" d="M11.8,14.3c0-1.1,0-1.3-0.8-1.6c-0.3-0.1-0.5-0.4-0.5-0.8c0-0.9,0.8-0.9,0.9-0.9h6.5v18.8
			c0,1.1,0,1.3,0.8,1.6c0.3,0.1,0.5,0.4,0.5,0.8c0,0.9-0.8,0.9-0.9,0.9h-6.9c-0.1,0-0.9-0.1-0.9-0.9c0-0.4,0.2-0.7,0.5-0.8
			c0.9-0.3,0.8-0.5,0.8-1.6L11.8,14.3L11.8,14.3z M18.9,11h5.5v6c0,0.1,0,0.7-0.8,0.7c-0.4,0-0.5-0.3-0.7-0.7
			c-0.6-2.4-1.9-3.8-4-4.2C18.9,12.7,18.9,11,18.9,11z M18.9,20.8c1-0.3,1.5-1.5,1.7-2.6c0.1-0.5,0.3-1,0.8-1c0.8,0,0.6,1.1,0.6,1.3
			v6.4c0,0.2,0.1,1.3-0.6,1.3c-0.5,0-0.7-0.5-0.8-1c-0.2-1.1-0.7-2.3-1.7-2.6C18.9,22.7,18.9,20.8,18.9,20.8z M33.1,29.7
			c0,1.1,0,1.3,0.8,1.6c0.3,0.1,0.5,0.4,0.5,0.8c0,0.9-0.8,0.9-0.9,0.9h-6.9c-0.1,0-0.9-0.1-0.9-0.9c0-0.4,0.2-0.7,0.5-0.8
			c0.9-0.3,0.8-0.5,0.8-1.6V14.3c0-1.1,0-1.3-0.8-1.6c-0.3-0.1-0.5-0.4-0.5-0.8c0-0.9,0.8-0.9,0.9-0.9h6.9c0.1,0,0.9,0.1,0.9,0.9
			c0,0.4-0.2,0.7-0.5,0.8c-0.9,0.3-0.8,0.5-0.8,1.6C33.1,14.3,33.1,29.7,33.1,29.7z M35.9,11h3.5v1.7c-1.3,1.1-1.6,3-1.8,4.6
			c-0.1,0.6-0.2,1.4-0.9,1.4c-0.7,0-0.8-0.7-0.8-0.9C35.9,17.8,35.9,11,35.9,11z M40.5,11h6v18.8c0,1.1,0,1.3,0.8,1.6
			c0.3,0.1,0.5,0.4,0.5,0.8c0,0.9-0.8,0.9-0.9,0.9h-6.9c-0.1,0-0.9-0.1-0.9-0.9c0-0.4,0.2-0.7,0.5-0.8c0.9-0.3,0.8-0.5,0.8-1.6
			C40.5,29.7,40.5,11,40.5,11z M51.2,17.8c0,0.1-0.1,0.9-0.8,0.9c-0.7,0-0.8-0.8-0.9-1.4c-0.2-1.6-0.6-3.5-1.8-4.6V11h3.5V17.8z
			 M11.8,42c0-1.1,0-1.3-0.8-1.6c-0.3-0.1-0.5-0.4-0.5-0.8c0-0.9,0.8-0.9,0.9-0.9h6.5v18.8c0,1.1,0,1.3,0.8,1.6
			c0.3,0.1,0.5,0.4,0.5,0.8c0,0.9-0.8,0.9-0.9,0.9h-6.9c-0.1,0-0.9-0.1-0.9-0.9c0-0.4,0.2-0.7,0.5-0.8c0.9-0.3,0.8-0.5,0.8-1.6
			C11.8,57.5,11.8,42,11.8,42z M18.9,38.7h5.5v6c0,0.1,0,0.7-0.8,0.7c-0.4,0-0.5-0.3-0.7-0.7c-0.6-2.4-1.9-3.8-4-4.2V38.7z
			 M18.9,48.5c1-0.3,1.5-1.5,1.7-2.6c0.1-0.5,0.3-1,0.8-1c0.8,0,0.6,1.1,0.6,1.3v6.4c0,0.2,0.1,1.3-0.6,1.3c-0.5,0-0.7-0.5-0.8-1
			c-0.2-1.1-0.7-2.3-1.7-2.6V48.5z M32.8,40c-1.2,0.5-1.2,1.4-1.2,2.1v15.3c0,0.7,0.1,1.6,1.2,2.1v1.7c-5.2-0.6-7.6-5.6-7.6-11.5
			s2.4-10.9,7.6-11.5V40z M33.9,59.5c1.2-0.5,1.2-1.4,1.2-2.1V42.1c0-0.7-0.1-1.6-1.2-2.1v-1.7c5.2,0.6,7.6,5.6,7.6,11.5
			s-2.4,10.9-7.6,11.5C33.9,61.2,33.9,59.5,33.9,59.5z M44.4,42c0-1.1,0-1.3-0.8-1.6c-0.3-0.1-0.5-0.4-0.5-0.8
			c0-0.9,0.8-0.9,0.9-0.9h6.5v18.8c0,1.1,0,1.3,0.8,1.6c0.3,0.1,0.5,0.4,0.5,0.8c0,0.9-0.8,0.9-0.9,0.9H44c-0.1,0-0.9-0.1-0.9-0.9
			c0-0.4,0.2-0.7,0.5-0.8c0.9-0.3,0.8-0.5,0.8-1.6V42z M51.5,38.7h0.1c1.6,0,3.3-0.1,4.7,0.8c1.6,1,2.5,2.6,2.5,4.8
			c0,3.4-1.8,4.9-4.3,5.6V50c2.2,0.4,4.3,1.1,4.3,4.3v2.6c0,0.3-0.1,0.9,0.2,0.9c0.4,0,0.5-0.9,1.1-0.9c0.3,0,0.7,0.4,0.7,0.9
			c0,0.9-0.8,1.9-1.3,2.4c-0.8,0.8-1.7,1.1-2.8,1.1c-1.1,0-2-0.3-2.8-1.2c-0.9-1.1-1-2.4-1-3.7v-2c0-1.4,0-3-1.5-3.2v-1.7
			c1.3-0.1,1.5-1.1,1.5-2.6v-3.6c0-1.5-0.3-2.2-1.5-2.7C51.5,40.4,51.5,38.7,51.5,38.7z M11.8,69.7c0-1.1,0-1.3-0.8-1.6
			c-0.3-0.1-0.5-0.4-0.5-0.8c0-0.9,0.8-0.9,0.9-0.9h6.5v18.8c0,1.1,0,1.3,0.8,1.6c0.3,0.1,0.5,0.4,0.5,0.8c0,0.9-0.8,0.9-0.9,0.9
			h-6.9c-0.1,0-0.9-0.1-0.9-0.9c0-0.4,0.2-0.7,0.5-0.8c0.9-0.3,0.8-0.5,0.8-1.6C11.8,85.2,11.8,69.7,11.8,69.7z M18.9,66.4h5.5v6
			c0,0.1,0,0.7-0.8,0.7c-0.4,0-0.5-0.3-0.7-0.7c-0.6-2.4-1.9-3.8-4-4.2C18.9,68.1,18.9,66.4,18.9,66.4z M18.9,76.3
			c1-0.3,1.5-1.5,1.7-2.6c0.1-0.5,0.3-1,0.8-1c0.8,0,0.6,1.1,0.6,1.3v6.4c0,0.2,0.1,1.3-0.6,1.3c-0.5,0-0.7-0.5-0.8-1
			c-0.2-1.1-0.7-2.3-1.7-2.6V76.3z M27.2,69.7c0-1.1,0-1.3-0.8-1.6c-0.3-0.1-0.5-0.4-0.5-0.8c0-0.9,0.8-0.9,0.9-0.9h6.5v18.8
			c0,1.1,0,1.3,0.8,1.6c0.3,0.1,0.5,0.4,0.5,0.8c0,0.9-0.8,0.9-0.9,0.9h-6.9c-0.1,0-0.9-0.1-0.9-0.9c0-0.4,0.2-0.7,0.5-0.8
			c0.9-0.3,0.8-0.5,0.8-1.6C27.2,85.2,27.2,69.7,27.2,69.7z M34.3,66.4h0.1c1.6,0,3.3-0.1,4.7,0.8c1.6,1,2.5,2.6,2.5,4.8
			c0,3.4-1.8,4.9-4.3,5.6v0.1c2.2,0.4,4.3,1.2,4.3,4.3v2.6c0,0.3-0.1,0.9,0.2,0.9c0.4,0,0.5-0.9,1.1-0.9c0.3,0,0.7,0.4,0.7,0.9
			c0,0.9-0.8,1.9-1.3,2.4c-0.8,0.8-1.7,1.1-2.8,1.1c-1.1,0-2-0.3-2.8-1.2c-0.9-1.1-1-2.4-1-3.7v-2c0-1.4,0-3-1.5-3.2V77
			c1.3-0.1,1.5-1.1,1.5-2.6v-3.6c0-1.5-0.3-2.2-1.5-2.7C34.3,68.1,34.3,66.4,34.3,66.4z M45,66.4h6.5v22.1H45
			c-0.1,0-0.9-0.1-0.9-0.9c0-0.4,0.2-0.7,0.5-0.8c0.9-0.3,0.8-0.5,0.8-1.6V69.7c0-1.1,0-1.3-0.8-1.6c-0.3-0.1-0.5-0.4-0.5-0.8
			C44.1,66.5,44.9,66.4,45,66.4L45,66.4z M52.6,66.4H58v6c0,0.1,0,0.7-0.8,0.7c-0.4,0-0.5-0.3-0.7-0.7c-0.6-2.4-1.9-3.8-4-4.2
			C52.6,68.1,52.6,66.4,52.6,66.4z M52.6,76.3c1-0.3,1.5-1.5,1.7-2.6c0.1-0.5,0.3-1,0.8-1c0.8,0,0.6,1.1,0.6,1.3v6.4
			c0,0.2,0.1,1.3-0.6,1.3c-0.5,0-0.7-0.5-0.8-1c-0.2-1.1-0.7-2.3-1.7-2.6C52.6,78.1,52.6,76.3,52.6,76.3z M52.6,86.8
			c2-0.3,3.5-1.9,4.2-4.3c0.2-0.4,0.3-0.9,0.8-0.9c0.8,0,0.7,0.9,0.7,1v5.9h-5.6V86.8z M60.9,66.4h6.5v22.1h-6.5
			c-0.1,0-0.9-0.1-0.9-0.9c0-0.4,0.2-0.7,0.5-0.8c0.9-0.3,0.8-0.5,0.8-1.6V69.7c0-1.1,0-1.3-0.8-1.6C60.2,68,60,67.7,60,67.3
			C60,66.5,60.8,66.4,60.9,66.4L60.9,66.4z M68.5,66.4h5.5v6c0,0.1,0,0.7-0.8,0.7c-0.4,0-0.5-0.3-0.7-0.7c-0.6-2.4-1.9-3.8-4-4.2
			C68.5,68.1,68.5,66.4,68.5,66.4z M68.5,76.3c1-0.3,1.5-1.5,1.7-2.6c0.1-0.5,0.3-1,0.8-1c0.8,0,0.6,1.1,0.6,1.3v6.4
			c0,0.2,0.1,1.3-0.6,1.3c-0.5,0-0.7-0.5-0.8-1c-0.2-1.1-0.7-2.3-1.7-2.6C68.5,78.1,68.5,76.3,68.5,76.3z M68.5,86.8
			c2-0.3,3.5-1.9,4.2-4.3c0.2-0.4,0.3-0.9,0.8-0.9c0.8,0,0.7,0.9,0.7,1v5.9h-5.6V86.8z"/>
	</g>
</g>
</svg>
